# xmcd
#
# Track frame offsets:
# 150
# 14136
# 22618
# 25425
# 28377
# 50561
# 62736
# 86382
# 94768
# 103805
# 133141
# 148186
# 152010
# 184757
# 192328
# 210993
#
# Disc length: 2940 seconds
#
#
# Revision: 0
# Processed by: cddbd v1.5.2PL0 Copyright (c) Steve Scherf et al.
# Submitted via: FreeRIP 2.90 
#
DISCID=e00b7a10
DTITLE=Grupo pueblo de Dios - Vuelvo a tu casa, Señor
DYEAR=1900
DGENRE=
TTITLE0=Cansado estoy del camino
TTITLE1=Porque de mi te acordaste
TTITLE2=Este es el tiempo
TTITLE3=No solo de pan
TTITLE4=Arriba nuestros ramos
TTITLE5=Dios mio, por que me abandonaste
TTITLE6=Canto de caridad
TTITLE7=El caliz que bendecimos
TTITLE8=Himno eucaristico
TTITLE9=Himno a la Cruz
TTITLE10=Junto a la Cruz
TTITLE11=Aclamacion a Cristo
TTITLE12=Anuncio del triunfo grande
TTITLE13=Porque es eterno su amor
TTITLE14=Letanias de los santos
TTITLE15=Esta es el agua
EXTD=
EXTT0=
EXTT1=
EXTT2=
EXTT3=
EXTT4=
EXTT5=
EXTT6=
EXTT7=
EXTT8=
EXTT9=
EXTT10=
EXTT11=
EXTT12=
EXTT13=
EXTT14=
EXTT15=
PLAYORDER=
